<mxfile host="app.diagrams.net" agent="Mozilla/5.0 (Windows NT 10.0; Win64; x64) AppleWebKit/537.36 (KHTML, like Gecko) Chrome/135.0.0.0 Safari/537.36 Edg/135.0.0.0" version="26.2.9">
  <diagram name="Página-1" id="xKmFslDyzq5Ru9HMgcNt">
    <mxGraphModel dx="2590" dy="2625" grid="1" gridSize="10" guides="1" tooltips="1" connect="1" arrows="1" fold="1" page="1" pageScale="1" pageWidth="1600" pageHeight="1200" math="0" shadow="0">
      <root>
        <mxCell id="0" />
        <mxCell id="1" parent="0" />
        <mxCell id="pr-d0naH3m2BM9bTAOtf-1" value="" style="rounded=0;whiteSpace=wrap;html=1;rotation=90;" vertex="1" parent="1">
          <mxGeometry x="62.24" y="197.77" width="725.53" height="430" as="geometry" />
        </mxCell>
        <mxCell id="pr-d0naH3m2BM9bTAOtf-2" style="edgeStyle=none;rounded=0;orthogonalLoop=1;jettySize=auto;html=1;exitX=1;exitY=0.3333333333333333;exitDx=0;exitDy=0;exitPerimeter=0;entryX=0;entryY=0.5;entryDx=0;entryDy=0;" edge="1" parent="1" source="pr-d0naH3m2BM9bTAOtf-3" target="pr-d0naH3m2BM9bTAOtf-4">
          <mxGeometry relative="1" as="geometry" />
        </mxCell>
        <mxCell id="pr-d0naH3m2BM9bTAOtf-3" value="Vendedores" style="shape=umlActor;verticalLabelPosition=bottom;verticalAlign=top;html=1;outlineConnect=0;" vertex="1" parent="1">
          <mxGeometry x="120" y="220" width="30" height="60" as="geometry" />
        </mxCell>
        <mxCell id="pr-d0naH3m2BM9bTAOtf-4" value="Ler o estoque" style="ellipse;whiteSpace=wrap;html=1;" vertex="1" parent="1">
          <mxGeometry x="365" y="130" width="120" height="80" as="geometry" />
        </mxCell>
        <mxCell id="pr-d0naH3m2BM9bTAOtf-5" style="edgeStyle=none;rounded=0;orthogonalLoop=1;jettySize=auto;html=1;exitX=0;exitY=0.3333333333333333;exitDx=0;exitDy=0;exitPerimeter=0;entryX=1;entryY=0.5;entryDx=0;entryDy=0;" edge="1" parent="1" source="pr-d0naH3m2BM9bTAOtf-7" target="pr-d0naH3m2BM9bTAOtf-4">
          <mxGeometry relative="1" as="geometry" />
        </mxCell>
        <mxCell id="pr-d0naH3m2BM9bTAOtf-6" style="edgeStyle=none;rounded=0;orthogonalLoop=1;jettySize=auto;html=1;exitX=0;exitY=0.3333333333333333;exitDx=0;exitDy=0;exitPerimeter=0;entryX=1;entryY=0.5;entryDx=0;entryDy=0;" edge="1" parent="1" source="pr-d0naH3m2BM9bTAOtf-7" target="pr-d0naH3m2BM9bTAOtf-9">
          <mxGeometry relative="1" as="geometry" />
        </mxCell>
        <mxCell id="pr-d0naH3m2BM9bTAOtf-7" value="Supervisor de vendas" style="shape=umlActor;verticalLabelPosition=bottom;verticalAlign=top;html=1;outlineConnect=0;" vertex="1" parent="1">
          <mxGeometry x="690" y="220" width="30" height="60" as="geometry" />
        </mxCell>
        <mxCell id="pr-d0naH3m2BM9bTAOtf-8" value="&lt;font style=&quot;font-size: 18px;&quot;&gt;&lt;b&gt;Sistema de controle de estoque&lt;/b&gt;&lt;/font&gt;" style="text;html=1;align=center;verticalAlign=middle;whiteSpace=wrap;rounded=0;" vertex="1" parent="1">
          <mxGeometry x="220" y="60" width="410" height="30" as="geometry" />
        </mxCell>
        <mxCell id="pr-d0naH3m2BM9bTAOtf-9" value="Registrar receita" style="ellipse;whiteSpace=wrap;html=1;" vertex="1" parent="1">
          <mxGeometry x="365" y="220" width="120" height="80" as="geometry" />
        </mxCell>
        <mxCell id="pr-d0naH3m2BM9bTAOtf-10" style="edgeStyle=none;rounded=0;orthogonalLoop=1;jettySize=auto;html=1;exitX=1;exitY=0.3333333333333333;exitDx=0;exitDy=0;exitPerimeter=0;entryX=0;entryY=0.5;entryDx=0;entryDy=0;" edge="1" parent="1" source="pr-d0naH3m2BM9bTAOtf-15" target="pr-d0naH3m2BM9bTAOtf-16">
          <mxGeometry relative="1" as="geometry" />
        </mxCell>
        <mxCell id="pr-d0naH3m2BM9bTAOtf-11" style="edgeStyle=none;rounded=0;orthogonalLoop=1;jettySize=auto;html=1;exitX=1;exitY=0.3333333333333333;exitDx=0;exitDy=0;exitPerimeter=0;entryX=0;entryY=1;entryDx=0;entryDy=0;" edge="1" parent="1" source="pr-d0naH3m2BM9bTAOtf-15" target="pr-d0naH3m2BM9bTAOtf-4">
          <mxGeometry relative="1" as="geometry" />
        </mxCell>
        <mxCell id="pr-d0naH3m2BM9bTAOtf-12" style="edgeStyle=none;rounded=0;orthogonalLoop=1;jettySize=auto;html=1;exitX=1;exitY=0.3333333333333333;exitDx=0;exitDy=0;exitPerimeter=0;entryX=0;entryY=0.5;entryDx=0;entryDy=0;" edge="1" parent="1" source="pr-d0naH3m2BM9bTAOtf-15" target="pr-d0naH3m2BM9bTAOtf-23">
          <mxGeometry relative="1" as="geometry" />
        </mxCell>
        <mxCell id="pr-d0naH3m2BM9bTAOtf-13" style="edgeStyle=none;rounded=0;orthogonalLoop=1;jettySize=auto;html=1;exitX=1;exitY=0.3333333333333333;exitDx=0;exitDy=0;exitPerimeter=0;entryX=0;entryY=0.5;entryDx=0;entryDy=0;" edge="1" parent="1" source="pr-d0naH3m2BM9bTAOtf-15" target="pr-d0naH3m2BM9bTAOtf-25">
          <mxGeometry relative="1" as="geometry" />
        </mxCell>
        <mxCell id="pr-d0naH3m2BM9bTAOtf-14" style="edgeStyle=none;rounded=0;orthogonalLoop=1;jettySize=auto;html=1;exitX=1;exitY=0.3333333333333333;exitDx=0;exitDy=0;exitPerimeter=0;entryX=0;entryY=0.5;entryDx=0;entryDy=0;" edge="1" parent="1" source="pr-d0naH3m2BM9bTAOtf-15" target="pr-d0naH3m2BM9bTAOtf-26">
          <mxGeometry relative="1" as="geometry" />
        </mxCell>
        <mxCell id="pr-d0naH3m2BM9bTAOtf-15" value="Estoque/Logística" style="shape=umlActor;verticalLabelPosition=bottom;verticalAlign=top;html=1;outlineConnect=0;" vertex="1" parent="1">
          <mxGeometry x="120" y="540" width="30" height="60" as="geometry" />
        </mxCell>
        <mxCell id="pr-d0naH3m2BM9bTAOtf-16" value="Editar o estoque" style="ellipse;whiteSpace=wrap;html=1;" vertex="1" parent="1">
          <mxGeometry x="365" y="310" width="120" height="80" as="geometry" />
        </mxCell>
        <mxCell id="pr-d0naH3m2BM9bTAOtf-17" style="edgeStyle=none;rounded=0;orthogonalLoop=1;jettySize=auto;html=1;exitX=0;exitY=0.3333333333333333;exitDx=0;exitDy=0;exitPerimeter=0;entryX=1;entryY=1;entryDx=0;entryDy=0;" edge="1" parent="1" source="pr-d0naH3m2BM9bTAOtf-22" target="pr-d0naH3m2BM9bTAOtf-4">
          <mxGeometry relative="1" as="geometry" />
        </mxCell>
        <mxCell id="pr-d0naH3m2BM9bTAOtf-18" style="edgeStyle=none;rounded=0;orthogonalLoop=1;jettySize=auto;html=1;exitX=0;exitY=0.3333333333333333;exitDx=0;exitDy=0;exitPerimeter=0;entryX=1;entryY=0.5;entryDx=0;entryDy=0;" edge="1" parent="1" source="pr-d0naH3m2BM9bTAOtf-22" target="pr-d0naH3m2BM9bTAOtf-16">
          <mxGeometry relative="1" as="geometry" />
        </mxCell>
        <mxCell id="pr-d0naH3m2BM9bTAOtf-19" style="edgeStyle=none;rounded=0;orthogonalLoop=1;jettySize=auto;html=1;exitX=0;exitY=0.3333333333333333;exitDx=0;exitDy=0;exitPerimeter=0;entryX=1;entryY=0.5;entryDx=0;entryDy=0;" edge="1" parent="1" source="pr-d0naH3m2BM9bTAOtf-22" target="pr-d0naH3m2BM9bTAOtf-24">
          <mxGeometry relative="1" as="geometry" />
        </mxCell>
        <mxCell id="pr-d0naH3m2BM9bTAOtf-20" style="edgeStyle=none;rounded=0;orthogonalLoop=1;jettySize=auto;html=1;exitX=0;exitY=0.3333333333333333;exitDx=0;exitDy=0;exitPerimeter=0;entryX=1;entryY=0.5;entryDx=0;entryDy=0;" edge="1" parent="1" source="pr-d0naH3m2BM9bTAOtf-22" target="pr-d0naH3m2BM9bTAOtf-25">
          <mxGeometry relative="1" as="geometry" />
        </mxCell>
        <mxCell id="pr-d0naH3m2BM9bTAOtf-21" style="edgeStyle=none;rounded=0;orthogonalLoop=1;jettySize=auto;html=1;exitX=0;exitY=0.3333333333333333;exitDx=0;exitDy=0;exitPerimeter=0;entryX=1;entryY=0.5;entryDx=0;entryDy=0;" edge="1" parent="1" source="pr-d0naH3m2BM9bTAOtf-22" target="pr-d0naH3m2BM9bTAOtf-26">
          <mxGeometry relative="1" as="geometry" />
        </mxCell>
        <mxCell id="pr-d0naH3m2BM9bTAOtf-22" value="Administrador" style="shape=umlActor;verticalLabelPosition=bottom;verticalAlign=top;html=1;outlineConnect=0;" vertex="1" parent="1">
          <mxGeometry x="690" y="540" width="30" height="60" as="geometry" />
        </mxCell>
        <mxCell id="pr-d0naH3m2BM9bTAOtf-23" value="Gerar relatório" style="ellipse;whiteSpace=wrap;html=1;" vertex="1" parent="1">
          <mxGeometry x="365" y="400" width="120" height="80" as="geometry" />
        </mxCell>
        <mxCell id="pr-d0naH3m2BM9bTAOtf-24" value="Requisições ao estoque" style="ellipse;whiteSpace=wrap;html=1;" vertex="1" parent="1">
          <mxGeometry x="365" y="580" width="120" height="80" as="geometry" />
        </mxCell>
        <mxCell id="pr-d0naH3m2BM9bTAOtf-25" value="Adicionar ao estoque" style="ellipse;whiteSpace=wrap;html=1;" vertex="1" parent="1">
          <mxGeometry x="365" y="670" width="120" height="80" as="geometry" />
        </mxCell>
        <mxCell id="pr-d0naH3m2BM9bTAOtf-26" value="Remover do estoque" style="ellipse;whiteSpace=wrap;html=1;" vertex="1" parent="1">
          <mxGeometry x="365" y="490" width="120" height="80" as="geometry" />
        </mxCell>
        <mxCell id="pr-d0naH3m2BM9bTAOtf-27" style="edgeStyle=none;rounded=0;orthogonalLoop=1;jettySize=auto;html=1;exitX=0.25;exitY=0;exitDx=0;exitDy=0;entryX=1;entryY=0.5;entryDx=0;entryDy=0;" edge="1" parent="1" source="pr-d0naH3m2BM9bTAOtf-28" target="pr-d0naH3m2BM9bTAOtf-44">
          <mxGeometry relative="1" as="geometry" />
        </mxCell>
        <mxCell id="pr-d0naH3m2BM9bTAOtf-28" value="Funcionário" style="swimlane;fontStyle=1;align=center;verticalAlign=top;childLayout=stackLayout;horizontal=1;startSize=26;horizontalStack=0;resizeParent=1;resizeParentMax=0;resizeLast=0;collapsible=1;marginBottom=0;whiteSpace=wrap;html=1;" vertex="1" parent="1">
          <mxGeometry x="840" y="44" width="160" height="164" as="geometry" />
        </mxCell>
        <mxCell id="pr-d0naH3m2BM9bTAOtf-29" value="+ ID: String&lt;div&gt;+ Nome: String&lt;/div&gt;&lt;div&gt;+ CPF: String&lt;/div&gt;&lt;div&gt;+ E-mail: String&lt;/div&gt;&lt;div&gt;+ Senha: String&lt;/div&gt;&lt;div&gt;+ Cargo: String&lt;/div&gt;" style="text;strokeColor=none;fillColor=none;align=left;verticalAlign=top;spacingLeft=4;spacingRight=4;overflow=hidden;rotatable=0;points=[[0,0.5],[1,0.5]];portConstraint=eastwest;whiteSpace=wrap;html=1;" vertex="1" parent="pr-d0naH3m2BM9bTAOtf-28">
          <mxGeometry y="26" width="160" height="104" as="geometry" />
        </mxCell>
        <mxCell id="pr-d0naH3m2BM9bTAOtf-30" value="" style="line;strokeWidth=1;fillColor=none;align=left;verticalAlign=middle;spacingTop=-1;spacingLeft=3;spacingRight=3;rotatable=0;labelPosition=right;points=[];portConstraint=eastwest;strokeColor=inherit;" vertex="1" parent="pr-d0naH3m2BM9bTAOtf-28">
          <mxGeometry y="130" width="160" height="8" as="geometry" />
        </mxCell>
        <mxCell id="pr-d0naH3m2BM9bTAOtf-31" value="+ Ler estoque" style="text;strokeColor=none;fillColor=none;align=left;verticalAlign=top;spacingLeft=4;spacingRight=4;overflow=hidden;rotatable=0;points=[[0,0.5],[1,0.5]];portConstraint=eastwest;whiteSpace=wrap;html=1;" vertex="1" parent="pr-d0naH3m2BM9bTAOtf-28">
          <mxGeometry y="138" width="160" height="26" as="geometry" />
        </mxCell>
        <mxCell id="pr-d0naH3m2BM9bTAOtf-32" value="Produto/Roupa" style="swimlane;fontStyle=1;align=center;verticalAlign=top;childLayout=stackLayout;horizontal=1;startSize=26;horizontalStack=0;resizeParent=1;resizeParentMax=0;resizeLast=0;collapsible=1;marginBottom=0;whiteSpace=wrap;html=1;" vertex="1" parent="1">
          <mxGeometry x="1360" width="160" height="184" as="geometry" />
        </mxCell>
        <mxCell id="pr-d0naH3m2BM9bTAOtf-33" value="+ ID: Integer&lt;div&gt;+ Aquisição: String&lt;/div&gt;&lt;div&gt;+ Tamanho: String&lt;/div&gt;&lt;div&gt;+ Cor: String&lt;/div&gt;&lt;div&gt;+ Tipo: String&lt;/div&gt;&lt;div&gt;+ Subtipo: String&lt;/div&gt;&lt;div&gt;+ Quantidade: String&lt;/div&gt;&lt;div&gt;+ Custo de produto: Float&lt;/div&gt;" style="text;strokeColor=none;fillColor=none;align=left;verticalAlign=top;spacingLeft=4;spacingRight=4;overflow=hidden;rotatable=0;points=[[0,0.5],[1,0.5]];portConstraint=eastwest;whiteSpace=wrap;html=1;" vertex="1" parent="pr-d0naH3m2BM9bTAOtf-32">
          <mxGeometry y="26" width="160" height="124" as="geometry" />
        </mxCell>
        <mxCell id="pr-d0naH3m2BM9bTAOtf-34" value="" style="line;strokeWidth=1;fillColor=none;align=left;verticalAlign=middle;spacingTop=-1;spacingLeft=3;spacingRight=3;rotatable=0;labelPosition=right;points=[];portConstraint=eastwest;strokeColor=inherit;" vertex="1" parent="pr-d0naH3m2BM9bTAOtf-32">
          <mxGeometry y="150" width="160" height="8" as="geometry" />
        </mxCell>
        <mxCell id="pr-d0naH3m2BM9bTAOtf-35" value="+ method(type): type" style="text;strokeColor=none;fillColor=none;align=left;verticalAlign=top;spacingLeft=4;spacingRight=4;overflow=hidden;rotatable=0;points=[[0,0.5],[1,0.5]];portConstraint=eastwest;whiteSpace=wrap;html=1;" vertex="1" parent="pr-d0naH3m2BM9bTAOtf-32">
          <mxGeometry y="158" width="160" height="26" as="geometry" />
        </mxCell>
        <mxCell id="pr-d0naH3m2BM9bTAOtf-36" value="Vedendor" style="swimlane;fontStyle=1;align=center;verticalAlign=top;childLayout=stackLayout;horizontal=1;startSize=26;horizontalStack=0;resizeParent=1;resizeParentMax=0;resizeLast=0;collapsible=1;marginBottom=0;whiteSpace=wrap;html=1;" vertex="1" parent="1">
          <mxGeometry x="960" y="280" width="160" height="86" as="geometry" />
        </mxCell>
        <mxCell id="pr-d0naH3m2BM9bTAOtf-37" value="+ field: type" style="text;strokeColor=none;fillColor=none;align=left;verticalAlign=top;spacingLeft=4;spacingRight=4;overflow=hidden;rotatable=0;points=[[0,0.5],[1,0.5]];portConstraint=eastwest;whiteSpace=wrap;html=1;" vertex="1" parent="pr-d0naH3m2BM9bTAOtf-36">
          <mxGeometry y="26" width="160" height="26" as="geometry" />
        </mxCell>
        <mxCell id="pr-d0naH3m2BM9bTAOtf-38" value="" style="line;strokeWidth=1;fillColor=none;align=left;verticalAlign=middle;spacingTop=-1;spacingLeft=3;spacingRight=3;rotatable=0;labelPosition=right;points=[];portConstraint=eastwest;strokeColor=inherit;" vertex="1" parent="pr-d0naH3m2BM9bTAOtf-36">
          <mxGeometry y="52" width="160" height="8" as="geometry" />
        </mxCell>
        <mxCell id="pr-d0naH3m2BM9bTAOtf-39" value="+ Ler estoque" style="text;strokeColor=none;fillColor=none;align=left;verticalAlign=top;spacingLeft=4;spacingRight=4;overflow=hidden;rotatable=0;points=[[0,0.5],[1,0.5]];portConstraint=eastwest;whiteSpace=wrap;html=1;" vertex="1" parent="pr-d0naH3m2BM9bTAOtf-36">
          <mxGeometry y="60" width="160" height="26" as="geometry" />
        </mxCell>
        <mxCell id="pr-d0naH3m2BM9bTAOtf-40" value="" style="endArrow=classic;html=1;rounded=0;entryX=0.75;entryY=0;entryDx=0;entryDy=0;exitX=1;exitY=0.5;exitDx=0;exitDy=0;" edge="1" parent="1" source="pr-d0naH3m2BM9bTAOtf-31" target="pr-d0naH3m2BM9bTAOtf-36">
          <mxGeometry width="50" height="50" relative="1" as="geometry">
            <mxPoint x="990" y="280" as="sourcePoint" />
            <mxPoint x="1040" y="230" as="targetPoint" />
          </mxGeometry>
        </mxCell>
        <mxCell id="pr-d0naH3m2BM9bTAOtf-41" value="Logistica" style="swimlane;fontStyle=1;align=center;verticalAlign=top;childLayout=stackLayout;horizontal=1;startSize=26;horizontalStack=0;resizeParent=1;resizeParentMax=0;resizeLast=0;collapsible=1;marginBottom=0;whiteSpace=wrap;html=1;" vertex="1" parent="1">
          <mxGeometry x="640" y="-160" width="160" height="150" as="geometry" />
        </mxCell>
        <mxCell id="pr-d0naH3m2BM9bTAOtf-42" value="+ field: type" style="text;strokeColor=none;fillColor=none;align=left;verticalAlign=top;spacingLeft=4;spacingRight=4;overflow=hidden;rotatable=0;points=[[0,0.5],[1,0.5]];portConstraint=eastwest;whiteSpace=wrap;html=1;" vertex="1" parent="pr-d0naH3m2BM9bTAOtf-41">
          <mxGeometry y="26" width="160" height="26" as="geometry" />
        </mxCell>
        <mxCell id="pr-d0naH3m2BM9bTAOtf-43" value="" style="line;strokeWidth=1;fillColor=none;align=left;verticalAlign=middle;spacingTop=-1;spacingLeft=3;spacingRight=3;rotatable=0;labelPosition=right;points=[];portConstraint=eastwest;strokeColor=inherit;" vertex="1" parent="pr-d0naH3m2BM9bTAOtf-41">
          <mxGeometry y="52" width="160" height="8" as="geometry" />
        </mxCell>
        <mxCell id="pr-d0naH3m2BM9bTAOtf-44" value="+ Remover estoque&lt;div&gt;+ Adicionar estoque&lt;/div&gt;&lt;div&gt;+ Ler estoque&lt;/div&gt;&lt;div&gt;+ Editar estoque&lt;/div&gt;&lt;div&gt;+ Gerar relatório&lt;/div&gt;" style="text;strokeColor=none;fillColor=none;align=left;verticalAlign=top;spacingLeft=4;spacingRight=4;overflow=hidden;rotatable=0;points=[[0,0.5],[1,0.5]];portConstraint=eastwest;whiteSpace=wrap;html=1;" vertex="1" parent="pr-d0naH3m2BM9bTAOtf-41">
          <mxGeometry y="60" width="160" height="90" as="geometry" />
        </mxCell>
        <mxCell id="pr-d0naH3m2BM9bTAOtf-45" value="Supervisor" style="swimlane;fontStyle=1;align=center;verticalAlign=top;childLayout=stackLayout;horizontal=1;startSize=26;horizontalStack=0;resizeParent=1;resizeParentMax=0;resizeLast=0;collapsible=1;marginBottom=0;whiteSpace=wrap;html=1;" vertex="1" parent="1">
          <mxGeometry x="920" y="-160" width="160" height="100" as="geometry" />
        </mxCell>
        <mxCell id="pr-d0naH3m2BM9bTAOtf-46" value="+ field: type" style="text;strokeColor=none;fillColor=none;align=left;verticalAlign=top;spacingLeft=4;spacingRight=4;overflow=hidden;rotatable=0;points=[[0,0.5],[1,0.5]];portConstraint=eastwest;whiteSpace=wrap;html=1;" vertex="1" parent="pr-d0naH3m2BM9bTAOtf-45">
          <mxGeometry y="26" width="160" height="26" as="geometry" />
        </mxCell>
        <mxCell id="pr-d0naH3m2BM9bTAOtf-47" value="" style="line;strokeWidth=1;fillColor=none;align=left;verticalAlign=middle;spacingTop=-1;spacingLeft=3;spacingRight=3;rotatable=0;labelPosition=right;points=[];portConstraint=eastwest;strokeColor=inherit;" vertex="1" parent="pr-d0naH3m2BM9bTAOtf-45">
          <mxGeometry y="52" width="160" height="8" as="geometry" />
        </mxCell>
        <mxCell id="pr-d0naH3m2BM9bTAOtf-48" value="+ Ler estoque&lt;div&gt;+ Registrar receita&lt;/div&gt;" style="text;strokeColor=none;fillColor=none;align=left;verticalAlign=top;spacingLeft=4;spacingRight=4;overflow=hidden;rotatable=0;points=[[0,0.5],[1,0.5]];portConstraint=eastwest;whiteSpace=wrap;html=1;" vertex="1" parent="pr-d0naH3m2BM9bTAOtf-45">
          <mxGeometry y="60" width="160" height="40" as="geometry" />
        </mxCell>
        <mxCell id="pr-d0naH3m2BM9bTAOtf-49" style="edgeStyle=none;rounded=0;orthogonalLoop=1;jettySize=auto;html=1;exitX=0.75;exitY=0;exitDx=0;exitDy=0;entryX=0.513;entryY=0.99;entryDx=0;entryDy=0;entryPerimeter=0;" edge="1" parent="1" source="pr-d0naH3m2BM9bTAOtf-28" target="pr-d0naH3m2BM9bTAOtf-48">
          <mxGeometry relative="1" as="geometry" />
        </mxCell>
        <mxCell id="pr-d0naH3m2BM9bTAOtf-50" value="Adimistrador" style="swimlane;fontStyle=1;align=center;verticalAlign=top;childLayout=stackLayout;horizontal=1;startSize=26;horizontalStack=0;resizeParent=1;resizeParentMax=0;resizeLast=0;collapsible=1;marginBottom=0;whiteSpace=wrap;html=1;" vertex="1" parent="1">
          <mxGeometry x="830" y="400" width="150" height="150" as="geometry" />
        </mxCell>
        <mxCell id="pr-d0naH3m2BM9bTAOtf-51" value="+ field: type" style="text;strokeColor=none;fillColor=none;align=left;verticalAlign=top;spacingLeft=4;spacingRight=4;overflow=hidden;rotatable=0;points=[[0,0.5],[1,0.5]];portConstraint=eastwest;whiteSpace=wrap;html=1;" vertex="1" parent="pr-d0naH3m2BM9bTAOtf-50">
          <mxGeometry y="26" width="150" height="26" as="geometry" />
        </mxCell>
        <mxCell id="pr-d0naH3m2BM9bTAOtf-52" value="" style="line;strokeWidth=1;fillColor=none;align=left;verticalAlign=middle;spacingTop=-1;spacingLeft=3;spacingRight=3;rotatable=0;labelPosition=right;points=[];portConstraint=eastwest;strokeColor=inherit;" vertex="1" parent="pr-d0naH3m2BM9bTAOtf-50">
          <mxGeometry y="52" width="150" height="8" as="geometry" />
        </mxCell>
        <mxCell id="pr-d0naH3m2BM9bTAOtf-53" value="+ Ler estoque&lt;div&gt;+ Editar estoque&lt;/div&gt;&lt;div&gt;+ Remover estoque&lt;/div&gt;&lt;div&gt;+ Requisições ao estoque&lt;/div&gt;&lt;div&gt;+ adicionar estoque&lt;/div&gt;" style="text;strokeColor=none;fillColor=none;align=left;verticalAlign=top;spacingLeft=4;spacingRight=4;overflow=hidden;rotatable=0;points=[[0,0.5],[1,0.5]];portConstraint=eastwest;whiteSpace=wrap;html=1;" vertex="1" parent="pr-d0naH3m2BM9bTAOtf-50">
          <mxGeometry y="60" width="150" height="90" as="geometry" />
        </mxCell>
        <mxCell id="pr-d0naH3m2BM9bTAOtf-54" value="" style="endArrow=classic;html=1;rounded=0;entryX=0.25;entryY=0;entryDx=0;entryDy=0;exitX=0.197;exitY=1.108;exitDx=0;exitDy=0;exitPerimeter=0;" edge="1" parent="1" source="pr-d0naH3m2BM9bTAOtf-31" target="pr-d0naH3m2BM9bTAOtf-50">
          <mxGeometry width="50" height="50" relative="1" as="geometry">
            <mxPoint x="740" y="400" as="sourcePoint" />
            <mxPoint x="790" y="350" as="targetPoint" />
          </mxGeometry>
        </mxCell>
        <mxCell id="pr-d0naH3m2BM9bTAOtf-55" value="Insumo" style="swimlane;fontStyle=1;align=center;verticalAlign=top;childLayout=stackLayout;horizontal=1;startSize=26;horizontalStack=0;resizeParent=1;resizeParentMax=0;resizeLast=0;collapsible=1;marginBottom=0;whiteSpace=wrap;html=1;" vertex="1" parent="1">
          <mxGeometry x="1530" y="291" width="160" height="134" as="geometry" />
        </mxCell>
        <mxCell id="pr-d0naH3m2BM9bTAOtf-56" value="+ Cor: String&lt;div&gt;+ Tipo:&amp;nbsp; String&lt;/div&gt;&lt;div&gt;+ Quantidade: Integer&lt;/div&gt;&lt;div&gt;+ Custo do Produto: Float&lt;/div&gt;" style="text;strokeColor=none;fillColor=none;align=left;verticalAlign=top;spacingLeft=4;spacingRight=4;overflow=hidden;rotatable=0;points=[[0,0.5],[1,0.5]];portConstraint=eastwest;whiteSpace=wrap;html=1;" vertex="1" parent="pr-d0naH3m2BM9bTAOtf-55">
          <mxGeometry y="26" width="160" height="74" as="geometry" />
        </mxCell>
        <mxCell id="pr-d0naH3m2BM9bTAOtf-57" value="" style="line;strokeWidth=1;fillColor=none;align=left;verticalAlign=middle;spacingTop=-1;spacingLeft=3;spacingRight=3;rotatable=0;labelPosition=right;points=[];portConstraint=eastwest;strokeColor=inherit;" vertex="1" parent="pr-d0naH3m2BM9bTAOtf-55">
          <mxGeometry y="100" width="160" height="8" as="geometry" />
        </mxCell>
        <mxCell id="pr-d0naH3m2BM9bTAOtf-58" value="+ method(type): type" style="text;strokeColor=none;fillColor=none;align=left;verticalAlign=top;spacingLeft=4;spacingRight=4;overflow=hidden;rotatable=0;points=[[0,0.5],[1,0.5]];portConstraint=eastwest;whiteSpace=wrap;html=1;" vertex="1" parent="pr-d0naH3m2BM9bTAOtf-55">
          <mxGeometry y="108" width="160" height="26" as="geometry" />
        </mxCell>
        <mxCell id="pr-d0naH3m2BM9bTAOtf-59" value="" style="endArrow=classic;html=1;rounded=0;entryX=0.5;entryY=0;entryDx=0;entryDy=0;exitX=0.242;exitY=0.954;exitDx=0;exitDy=0;exitPerimeter=0;" edge="1" parent="1" source="pr-d0naH3m2BM9bTAOtf-64" target="pr-d0naH3m2BM9bTAOtf-55">
          <mxGeometry width="50" height="50" relative="1" as="geometry">
            <mxPoint x="1590" y="230" as="sourcePoint" />
            <mxPoint x="1650" y="150" as="targetPoint" />
          </mxGeometry>
        </mxCell>
        <mxCell id="pr-d0naH3m2BM9bTAOtf-60" style="edgeStyle=none;rounded=0;orthogonalLoop=1;jettySize=auto;html=1;exitX=0.25;exitY=0;exitDx=0;exitDy=0;entryX=1;entryY=0.5;entryDx=0;entryDy=0;" edge="1" parent="1" source="pr-d0naH3m2BM9bTAOtf-61" target="pr-d0naH3m2BM9bTAOtf-33">
          <mxGeometry relative="1" as="geometry" />
        </mxCell>
        <mxCell id="pr-d0naH3m2BM9bTAOtf-61" value="Estoque" style="swimlane;fontStyle=1;align=center;verticalAlign=top;childLayout=stackLayout;horizontal=1;startSize=26;horizontalStack=0;resizeParent=1;resizeParentMax=0;resizeLast=0;collapsible=1;marginBottom=0;whiteSpace=wrap;html=1;" vertex="1" parent="1">
          <mxGeometry x="1580" y="122" width="160" height="86" as="geometry" />
        </mxCell>
        <mxCell id="pr-d0naH3m2BM9bTAOtf-62" value="+ Saldo" style="text;strokeColor=none;fillColor=none;align=left;verticalAlign=top;spacingLeft=4;spacingRight=4;overflow=hidden;rotatable=0;points=[[0,0.5],[1,0.5]];portConstraint=eastwest;whiteSpace=wrap;html=1;" vertex="1" parent="pr-d0naH3m2BM9bTAOtf-61">
          <mxGeometry y="26" width="160" height="26" as="geometry" />
        </mxCell>
        <mxCell id="pr-d0naH3m2BM9bTAOtf-63" value="" style="line;strokeWidth=1;fillColor=none;align=left;verticalAlign=middle;spacingTop=-1;spacingLeft=3;spacingRight=3;rotatable=0;labelPosition=right;points=[];portConstraint=eastwest;strokeColor=inherit;" vertex="1" parent="pr-d0naH3m2BM9bTAOtf-61">
          <mxGeometry y="52" width="160" height="8" as="geometry" />
        </mxCell>
        <mxCell id="pr-d0naH3m2BM9bTAOtf-64" value="+ method(type): type" style="text;strokeColor=none;fillColor=none;align=left;verticalAlign=top;spacingLeft=4;spacingRight=4;overflow=hidden;rotatable=0;points=[[0,0.5],[1,0.5]];portConstraint=eastwest;whiteSpace=wrap;html=1;" vertex="1" parent="pr-d0naH3m2BM9bTAOtf-61">
          <mxGeometry y="60" width="160" height="26" as="geometry" />
        </mxCell>
        <mxCell id="pr-d0naH3m2BM9bTAOtf-65" value="Venda" style="swimlane;fontStyle=1;align=center;verticalAlign=top;childLayout=stackLayout;horizontal=1;startSize=26;horizontalStack=0;resizeParent=1;resizeParentMax=0;resizeLast=0;collapsible=1;marginBottom=0;whiteSpace=wrap;html=1;" vertex="1" parent="1">
          <mxGeometry x="1240" y="240" width="200" height="114" as="geometry" />
        </mxCell>
        <mxCell id="pr-d0naH3m2BM9bTAOtf-66" value="+ Data de venda: String&lt;div&gt;+ Pode haver devolução: Boolean&lt;/div&gt;&lt;div&gt;+ Id do produto vendido: Integer&lt;/div&gt;" style="text;strokeColor=none;fillColor=none;align=left;verticalAlign=top;spacingLeft=4;spacingRight=4;overflow=hidden;rotatable=0;points=[[0,0.5],[1,0.5]];portConstraint=eastwest;whiteSpace=wrap;html=1;" vertex="1" parent="pr-d0naH3m2BM9bTAOtf-65">
          <mxGeometry y="26" width="200" height="54" as="geometry" />
        </mxCell>
        <mxCell id="pr-d0naH3m2BM9bTAOtf-67" value="" style="line;strokeWidth=1;fillColor=none;align=left;verticalAlign=middle;spacingTop=-1;spacingLeft=3;spacingRight=3;rotatable=0;labelPosition=right;points=[];portConstraint=eastwest;strokeColor=inherit;" vertex="1" parent="pr-d0naH3m2BM9bTAOtf-65">
          <mxGeometry y="80" width="200" height="8" as="geometry" />
        </mxCell>
        <mxCell id="pr-d0naH3m2BM9bTAOtf-68" value="+ method(type): type" style="text;strokeColor=none;fillColor=none;align=left;verticalAlign=top;spacingLeft=4;spacingRight=4;overflow=hidden;rotatable=0;points=[[0,0.5],[1,0.5]];portConstraint=eastwest;whiteSpace=wrap;html=1;" vertex="1" parent="pr-d0naH3m2BM9bTAOtf-65">
          <mxGeometry y="88" width="200" height="26" as="geometry" />
        </mxCell>
        <mxCell id="pr-d0naH3m2BM9bTAOtf-69" style="edgeStyle=none;rounded=0;orthogonalLoop=1;jettySize=auto;html=1;exitX=0;exitY=0.5;exitDx=0;exitDy=0;entryX=1;entryY=0.5;entryDx=0;entryDy=0;" edge="1" parent="1" source="pr-d0naH3m2BM9bTAOtf-56" target="pr-d0naH3m2BM9bTAOtf-66">
          <mxGeometry relative="1" as="geometry" />
        </mxCell>
        <mxCell id="pr-d0naH3m2BM9bTAOtf-70" style="edgeStyle=none;rounded=0;orthogonalLoop=1;jettySize=auto;html=1;exitX=0;exitY=0.5;exitDx=0;exitDy=0;entryX=0.25;entryY=0;entryDx=0;entryDy=0;" edge="1" parent="1" source="pr-d0naH3m2BM9bTAOtf-33" target="pr-d0naH3m2BM9bTAOtf-65">
          <mxGeometry relative="1" as="geometry" />
        </mxCell>
      </root>
    </mxGraphModel>
  </diagram>
</mxfile>
